G04*
G04 #@! TF.GenerationSoftware,Altium Limited,Altium Designer,25.8.1 (18)*
G04*
G04 Layer_Physical_Order=2*
G04 Layer_Color=16711680*
%FSLAX44Y44*%
%MOMM*%
G71*
G04*
G04 #@! TF.SameCoordinates,FD4C0DAB-9491-4D72-95A4-0CDAAEB39303*
G04*
G04*
G04 #@! TF.FilePolarity,Positive*
G04*
G01*
G75*
%ADD12C,0.2540*%
%ADD30C,1.8000*%
%ADD31R,1.8000X1.8000*%
%ADD32C,3.6600*%
%ADD33C,1.4000*%
%ADD34C,2.1000*%
%ADD35R,2.0700X2.0700*%
%ADD36C,2.0700*%
%ADD37C,1.3500*%
%ADD38R,1.3500X1.3500*%
%ADD39R,1.3500X1.3500*%
%ADD40R,1.1300X1.1300*%
%ADD41C,1.1300*%
%ADD42C,1.2170*%
%ADD43C,1.3160*%
%ADD44C,1.2700*%
G36*
X735330Y0D02*
X0D01*
Y425450D01*
X735330D01*
Y0D01*
D02*
G37*
%LPC*%
G36*
X615903Y389570D02*
X613457D01*
X611094Y388937D01*
X608976Y387714D01*
X607246Y385984D01*
X606023Y383866D01*
X605390Y381503D01*
Y379057D01*
X606023Y376694D01*
X607246Y374576D01*
X608976Y372846D01*
X611094Y371623D01*
X613457Y370990D01*
X615903D01*
X618266Y371623D01*
X620384Y372846D01*
X622114Y374576D01*
X623337Y376694D01*
X623970Y379057D01*
Y381503D01*
X623337Y383866D01*
X622114Y385984D01*
X620384Y387714D01*
X618266Y388937D01*
X615903Y389570D01*
D02*
G37*
G36*
X141987Y389050D02*
X138553D01*
X135237Y388161D01*
X132263Y386445D01*
X129835Y384017D01*
X128119Y381043D01*
X127230Y377727D01*
Y374293D01*
X128119Y370977D01*
X129835Y368003D01*
X132263Y365575D01*
X135237Y363859D01*
X138553Y362970D01*
X141987D01*
X145303Y363859D01*
X148277Y365575D01*
X150705Y368003D01*
X152421Y370977D01*
X153310Y374293D01*
Y377727D01*
X152421Y381043D01*
X150705Y384017D01*
X148277Y386445D01*
X145303Y388161D01*
X141987Y389050D01*
D02*
G37*
G36*
X431938Y368870D02*
X429782D01*
X427699Y368312D01*
X425831Y367234D01*
X424307Y365709D01*
X423228Y363841D01*
X422670Y361758D01*
Y359602D01*
X423228Y357519D01*
X424307Y355651D01*
X425831Y354126D01*
X427699Y353048D01*
X429782Y352490D01*
X431938D01*
X434021Y353048D01*
X435889Y354126D01*
X437414Y355651D01*
X438492Y357519D01*
X439050Y359602D01*
Y361758D01*
X438492Y363841D01*
X437414Y365709D01*
X435889Y367234D01*
X434021Y368312D01*
X431938Y368870D01*
D02*
G37*
G36*
X352538D02*
X350382D01*
X348299Y368312D01*
X346431Y367234D01*
X344906Y365709D01*
X343828Y363841D01*
X343270Y361758D01*
Y359602D01*
X343828Y357519D01*
X344906Y355651D01*
X346431Y354126D01*
X348299Y353048D01*
X350382Y352490D01*
X352538D01*
X354621Y353048D01*
X356489Y354126D01*
X358013Y355651D01*
X359092Y357519D01*
X359650Y359602D01*
Y361758D01*
X359092Y363841D01*
X358013Y365709D01*
X356489Y367234D01*
X354621Y368312D01*
X352538Y368870D01*
D02*
G37*
G36*
X484990Y350920D02*
X466410D01*
Y345515D01*
X437210D01*
X435724Y345219D01*
X434463Y344377D01*
X433215Y343128D01*
X431938Y343470D01*
X429782D01*
X427699Y342912D01*
X425831Y341834D01*
X424307Y340309D01*
X423228Y338441D01*
X422670Y336358D01*
Y334202D01*
X423228Y332119D01*
X424307Y330251D01*
X425831Y328726D01*
X427699Y327648D01*
X429782Y327090D01*
X431938D01*
X434021Y327648D01*
X435889Y328726D01*
X437414Y330251D01*
X438492Y332119D01*
X439050Y334202D01*
Y336358D01*
X441308Y337745D01*
X466410D01*
Y332340D01*
X484990D01*
Y350920D01*
D02*
G37*
G36*
X566923D02*
X564477D01*
X562114Y350287D01*
X559996Y349064D01*
X558266Y347334D01*
X557043Y345216D01*
X556410Y342853D01*
Y340407D01*
X557043Y338044D01*
X558266Y335926D01*
X559996Y334196D01*
X562114Y332973D01*
X564477Y332340D01*
X566923D01*
X569286Y332973D01*
X571404Y334196D01*
X573134Y335926D01*
X574357Y338044D01*
X574990Y340407D01*
Y342853D01*
X574357Y345216D01*
X573134Y347334D01*
X571404Y349064D01*
X569286Y350287D01*
X566923Y350920D01*
D02*
G37*
G36*
X256526Y343550D02*
X254014D01*
X251588Y342900D01*
X249412Y341644D01*
X247636Y339868D01*
X246380Y337692D01*
X245730Y335266D01*
Y332754D01*
X246380Y330328D01*
X247636Y328152D01*
X249412Y326376D01*
X251588Y325120D01*
X254014Y324470D01*
X256526D01*
X258952Y325120D01*
X261128Y326376D01*
X262904Y328152D01*
X264160Y330328D01*
X264810Y332754D01*
Y335266D01*
X264160Y337692D01*
X262904Y339868D01*
X261128Y341644D01*
X258952Y342900D01*
X256526Y343550D01*
D02*
G37*
G36*
X216526D02*
X214014D01*
X211588Y342900D01*
X209412Y341644D01*
X207636Y339868D01*
X206380Y337692D01*
X205730Y335266D01*
Y334336D01*
X205665Y334010D01*
X205730Y333685D01*
Y332754D01*
X206380Y330328D01*
X207636Y328152D01*
X209412Y326376D01*
X211588Y325120D01*
X214014Y324470D01*
X216526D01*
X218952Y325120D01*
X221128Y326376D01*
X222904Y328152D01*
X224160Y330328D01*
X224810Y332754D01*
Y335266D01*
X224160Y337692D01*
X222904Y339868D01*
X221128Y341644D01*
X218952Y342900D01*
X216526Y343550D01*
D02*
G37*
G36*
X176526D02*
X174014D01*
X171588Y342900D01*
X169412Y341644D01*
X167636Y339868D01*
X166380Y337692D01*
X165730Y335266D01*
Y334616D01*
X165653Y334564D01*
X165305Y334217D01*
X164463Y332957D01*
X164168Y331470D01*
X164463Y329983D01*
X165305Y328723D01*
X166566Y327881D01*
X168052Y327585D01*
X168178Y327610D01*
X169412Y326376D01*
X171588Y325120D01*
X174014Y324470D01*
X176526D01*
X178952Y325120D01*
X181128Y326376D01*
X182904Y328152D01*
X184160Y330328D01*
X184810Y332754D01*
Y335266D01*
X184160Y337692D01*
X182904Y339868D01*
X181128Y341644D01*
X178952Y342900D01*
X176526Y343550D01*
D02*
G37*
G36*
X352538Y343470D02*
X350382D01*
X348299Y342912D01*
X346431Y341834D01*
X344906Y340309D01*
X343828Y338441D01*
X343270Y336358D01*
Y334202D01*
X343828Y332119D01*
X344906Y330251D01*
X346431Y328726D01*
X348299Y327648D01*
X350382Y327090D01*
X352538D01*
X353814Y327432D01*
X374113Y307133D01*
X375373Y306291D01*
X376860Y305995D01*
X423646D01*
X424307Y304851D01*
X425831Y303326D01*
X427699Y302248D01*
X429782Y301690D01*
X431938D01*
X434021Y302248D01*
X435889Y303326D01*
X437414Y304851D01*
X438492Y306719D01*
X439050Y308802D01*
Y310958D01*
X438492Y313041D01*
X437414Y314909D01*
X435889Y316434D01*
X434021Y317512D01*
X431938Y318070D01*
X429782D01*
X427699Y317512D01*
X425831Y316434D01*
X424307Y314909D01*
X423646Y313765D01*
X378469D01*
X359308Y332926D01*
X359650Y334202D01*
Y336358D01*
X359092Y338441D01*
X358013Y340309D01*
X356489Y341834D01*
X354621Y342912D01*
X352538Y343470D01*
D02*
G37*
G36*
Y318070D02*
X350382D01*
X348299Y317512D01*
X346431Y316434D01*
X344906Y314909D01*
X343828Y313041D01*
X343270Y310958D01*
Y309944D01*
X300432Y267106D01*
X298403Y267650D01*
X295957D01*
X293594Y267017D01*
X291476Y265794D01*
X289746Y264064D01*
X288523Y261946D01*
X287890Y259583D01*
Y257137D01*
X288434Y255108D01*
X283845Y250519D01*
X225190D01*
Y267650D01*
X206610D01*
Y250519D01*
X147955D01*
X143366Y255108D01*
X143910Y257137D01*
Y259583D01*
X143277Y261946D01*
X142054Y264064D01*
X140324Y265794D01*
X138206Y267017D01*
X135843Y267650D01*
X133397D01*
X131034Y267017D01*
X128916Y265794D01*
X127186Y264064D01*
X125963Y261946D01*
X125330Y259583D01*
Y257137D01*
X125963Y254774D01*
X127186Y252656D01*
X128916Y250926D01*
X131034Y249703D01*
X133397Y249070D01*
X135843D01*
X137872Y249614D01*
X143599Y243887D01*
X144860Y243045D01*
X146346Y242749D01*
X285454D01*
X286940Y243045D01*
X288201Y243887D01*
X293927Y249614D01*
X295957Y249070D01*
X298403D01*
X300766Y249703D01*
X302884Y250926D01*
X304614Y252656D01*
X305837Y254774D01*
X306470Y257137D01*
Y259583D01*
X305926Y261613D01*
X347197Y302884D01*
X348299Y302248D01*
X350382Y301690D01*
X352538D01*
X354621Y302248D01*
X356489Y303326D01*
X358013Y304851D01*
X359092Y306719D01*
X359650Y308802D01*
Y310958D01*
X359092Y313041D01*
X358013Y314909D01*
X356489Y316434D01*
X354621Y317512D01*
X352538Y318070D01*
D02*
G37*
G36*
X291987Y327050D02*
X288553D01*
X285237Y326161D01*
X282263Y324445D01*
X279836Y322017D01*
X278119Y319043D01*
X277230Y315727D01*
Y312293D01*
X278119Y308977D01*
X279836Y306003D01*
X282263Y303575D01*
X285237Y301859D01*
X288553Y300970D01*
X291987D01*
X295303Y301859D01*
X298277Y303575D01*
X300705Y306003D01*
X302421Y308977D01*
X303310Y312293D01*
Y315727D01*
X302421Y319043D01*
X300705Y322017D01*
X298277Y324445D01*
X295303Y326161D01*
X291987Y327050D01*
D02*
G37*
G36*
X429590Y292670D02*
X422670D01*
Y285750D01*
X429590D01*
Y292670D01*
D02*
G37*
G36*
X615903Y299570D02*
X613457D01*
X611094Y298937D01*
X608976Y297714D01*
X607246Y295984D01*
X606023Y293866D01*
X605390Y291503D01*
Y289057D01*
X606023Y286694D01*
X607246Y284576D01*
X608976Y282846D01*
X611094Y281623D01*
X613457Y280990D01*
X615903D01*
X618266Y281623D01*
X620384Y282846D01*
X622114Y284576D01*
X623337Y286694D01*
X623970Y289057D01*
Y291503D01*
X623337Y293866D01*
X622114Y295984D01*
X620384Y297714D01*
X618266Y298937D01*
X615903Y299570D01*
D02*
G37*
G36*
X352538Y292670D02*
X350382D01*
X348299Y292112D01*
X346431Y291034D01*
X344906Y289509D01*
X343828Y287641D01*
X343270Y285558D01*
Y283402D01*
X343828Y281319D01*
X344906Y279451D01*
X346431Y277926D01*
X348299Y276848D01*
X350382Y276290D01*
X352538D01*
X354621Y276848D01*
X356489Y277926D01*
X358013Y279451D01*
X359092Y281319D01*
X359650Y283402D01*
Y285558D01*
X359092Y287641D01*
X358013Y289509D01*
X356489Y291034D01*
X354621Y292112D01*
X352538Y292670D01*
D02*
G37*
G36*
X566970Y254387D02*
Y246380D01*
X574978D01*
X574357Y248696D01*
X573134Y250814D01*
X571404Y252544D01*
X569286Y253767D01*
X566970Y254387D01*
D02*
G37*
G36*
X439050Y292670D02*
X432130D01*
Y284480D01*
X430860D01*
D01*
X432130D01*
Y276290D01*
X439050D01*
Y280595D01*
X524721D01*
X556954Y248363D01*
X556423Y246380D01*
X564430D01*
Y254387D01*
X562448Y253856D01*
X529077Y287227D01*
X527817Y288069D01*
X526330Y288365D01*
X439050D01*
Y292670D01*
D02*
G37*
G36*
X574978Y243840D02*
X566970D01*
Y235833D01*
X569286Y236453D01*
X571404Y237676D01*
X573134Y239406D01*
X574357Y241524D01*
X574978Y243840D01*
D02*
G37*
G36*
X564430D02*
X556423D01*
X557043Y241524D01*
X558266Y239406D01*
X559996Y237676D01*
X562114Y236453D01*
X564430Y235833D01*
Y243840D01*
D02*
G37*
G36*
X484990Y254400D02*
X466410D01*
Y235820D01*
X484990D01*
Y254400D01*
D02*
G37*
G36*
X684640Y251570D02*
X661560D01*
Y228490D01*
X684640D01*
Y251570D01*
D02*
G37*
G36*
X61209D02*
X58171D01*
X55236Y250784D01*
X52604Y249264D01*
X50456Y247116D01*
X48937Y244484D01*
X48150Y241549D01*
Y238511D01*
X48937Y235576D01*
X50456Y232944D01*
X52604Y230796D01*
X55236Y229277D01*
X58171Y228490D01*
X61209D01*
X64144Y229277D01*
X66776Y230796D01*
X68924Y232944D01*
X70444Y235576D01*
X71230Y238511D01*
Y241549D01*
X70444Y244484D01*
X68924Y247116D01*
X66776Y249264D01*
X64144Y250784D01*
X61209Y251570D01*
D02*
G37*
G36*
X429590Y283210D02*
X422670D01*
Y281784D01*
X334801Y193915D01*
X71230D01*
Y201570D01*
X60960D01*
Y190030D01*
Y178490D01*
X71230D01*
Y186145D01*
X336410D01*
X337897Y186441D01*
X339157Y187283D01*
X428164Y276290D01*
X429590D01*
Y283210D01*
D02*
G37*
G36*
X58420Y201570D02*
X48150D01*
Y191300D01*
X58420D01*
Y201570D01*
D02*
G37*
G36*
X674619D02*
X671581D01*
X668646Y200784D01*
X666014Y199264D01*
X663866Y197116D01*
X662346Y194484D01*
X661560Y191549D01*
Y188511D01*
X662346Y185576D01*
X663866Y182944D01*
X666014Y180796D01*
X668646Y179277D01*
X671581Y178490D01*
X674619D01*
X677554Y179277D01*
X680186Y180796D01*
X682334Y182944D01*
X683854Y185576D01*
X684640Y188511D01*
Y191549D01*
X683854Y194484D01*
X682334Y197116D01*
X680186Y199264D01*
X677554Y200784D01*
X674619Y201570D01*
D02*
G37*
G36*
X58420Y188760D02*
X48150D01*
Y178490D01*
X58420D01*
Y188760D01*
D02*
G37*
G36*
X217123Y177650D02*
X214677D01*
X212314Y177017D01*
X210196Y175794D01*
X208466Y174064D01*
X207243Y171946D01*
X206610Y169583D01*
Y167137D01*
X207243Y164774D01*
X208466Y162656D01*
X210196Y160926D01*
X212314Y159703D01*
X214677Y159070D01*
X217123D01*
X219486Y159703D01*
X221604Y160926D01*
X223334Y162656D01*
X224557Y164774D01*
X225190Y167137D01*
Y169583D01*
X224557Y171946D01*
X223334Y174064D01*
X221604Y175794D01*
X219486Y177017D01*
X217123Y177650D01*
D02*
G37*
G36*
X298403D02*
X295957D01*
X293594Y177017D01*
X291476Y175794D01*
X289746Y174064D01*
X288696Y172244D01*
X249640D01*
X248153Y171949D01*
X246893Y171107D01*
X224675Y148889D01*
X224164Y149184D01*
X221229Y149970D01*
X218191D01*
X215256Y149184D01*
X212624Y147664D01*
X210476Y145516D01*
X208957Y142884D01*
X208525Y141273D01*
X205895D01*
X205463Y142884D01*
X203944Y145516D01*
X201796Y147664D01*
X199164Y149184D01*
X196229Y149970D01*
X193190D01*
X190256Y149184D01*
X187624Y147664D01*
X185476Y145516D01*
X183956Y142884D01*
X183804Y142315D01*
X166159D01*
X143366Y165107D01*
X143910Y167137D01*
Y169583D01*
X143277Y171946D01*
X142054Y174064D01*
X140324Y175794D01*
X138206Y177017D01*
X135843Y177650D01*
X133397D01*
X131034Y177017D01*
X128916Y175794D01*
X127186Y174064D01*
X125963Y171946D01*
X125330Y169583D01*
Y167137D01*
X125963Y164774D01*
X127186Y162656D01*
X128916Y160926D01*
X131034Y159703D01*
X133397Y159070D01*
X135843D01*
X137872Y159614D01*
X161803Y135683D01*
X163063Y134841D01*
X164550Y134545D01*
X183804D01*
X183956Y133976D01*
X185476Y131344D01*
X187624Y129196D01*
X190256Y127676D01*
X193190Y126890D01*
X196229D01*
X199164Y127676D01*
X201796Y129196D01*
X203944Y131344D01*
X205463Y133976D01*
X205895Y135587D01*
X208525D01*
X208957Y133976D01*
X210476Y131344D01*
X212624Y129196D01*
X215256Y127676D01*
X218191Y126890D01*
X221229D01*
X224164Y127676D01*
X226796Y129196D01*
X228944Y131344D01*
X230464Y133976D01*
X230895Y135587D01*
X233525D01*
X233957Y133976D01*
X235476Y131344D01*
X237624Y129196D01*
X240256Y127676D01*
X243191Y126890D01*
X246229D01*
X249165Y127676D01*
X251796Y129196D01*
X253944Y131344D01*
X255464Y133976D01*
X255616Y134545D01*
X314621D01*
X349533Y99634D01*
X349020Y97721D01*
Y95319D01*
X349641Y93000D01*
X350842Y90920D01*
X352540Y89222D01*
X354620Y88021D01*
X356939Y87400D01*
X359341D01*
X361660Y88021D01*
X363740Y89222D01*
X365438Y90920D01*
X366638Y93000D01*
X367260Y95319D01*
Y97721D01*
X366638Y100040D01*
X365438Y102120D01*
X363740Y103818D01*
X361660Y105019D01*
X359341Y105640D01*
X356939D01*
X355026Y105127D01*
X318977Y141177D01*
X317717Y142019D01*
X316230Y142315D01*
X255616D01*
X255464Y142884D01*
X253944Y145516D01*
X251796Y147664D01*
X249165Y149184D01*
X246229Y149970D01*
X243191D01*
X240256Y149184D01*
X238584Y148218D01*
X237025Y150251D01*
X251249Y164475D01*
X288696D01*
X289746Y162656D01*
X291476Y160926D01*
X293594Y159703D01*
X295957Y159070D01*
X298403D01*
X300766Y159703D01*
X302884Y160926D01*
X304614Y162656D01*
X305837Y164774D01*
X306470Y167137D01*
Y169583D01*
X305837Y171946D01*
X304614Y174064D01*
X302884Y175794D01*
X300766Y177017D01*
X298403Y177650D01*
D02*
G37*
G36*
X406400Y125703D02*
X404239Y125124D01*
X402211Y123954D01*
X400556Y122299D01*
X399386Y120271D01*
X398807Y118110D01*
X406400D01*
Y125703D01*
D02*
G37*
G36*
Y115570D02*
X398807D01*
X399386Y113409D01*
X400556Y111381D01*
X402211Y109726D01*
X404239Y108556D01*
X406400Y107977D01*
Y115570D01*
D02*
G37*
G36*
X457066Y107685D02*
X454795D01*
X452601Y107097D01*
X450634Y105962D01*
X449028Y104356D01*
X447893Y102389D01*
X447305Y100196D01*
Y97924D01*
X447893Y95731D01*
X449028Y93764D01*
X450634Y92158D01*
X452601Y91023D01*
X454795Y90435D01*
X457066D01*
X459259Y91023D01*
X461226Y92158D01*
X462832Y93764D01*
X463967Y95731D01*
X464555Y97924D01*
Y100196D01*
X463967Y102389D01*
X462832Y104356D01*
X461226Y105962D01*
X459259Y107097D01*
X457066Y107685D01*
D02*
G37*
G36*
X558990Y101600D02*
X547370D01*
Y89980D01*
X547797D01*
X551075Y90858D01*
X554015Y92555D01*
X556415Y94955D01*
X558112Y97895D01*
X558990Y101173D01*
Y101600D01*
D02*
G37*
G36*
Y166560D02*
X533210D01*
Y140780D01*
X536912D01*
X537572Y139643D01*
X537841Y138240D01*
X535785Y136185D01*
X534088Y133245D01*
X533210Y129967D01*
Y126573D01*
X534088Y123295D01*
X535785Y120355D01*
X538185Y117955D01*
X539777Y117037D01*
Y114103D01*
X538185Y113185D01*
X535785Y110785D01*
X534088Y107845D01*
X533796Y106755D01*
X485140D01*
X483653Y106459D01*
X482393Y105617D01*
X458639Y81863D01*
X457200Y82249D01*
Y74930D01*
X464519D01*
X464133Y76370D01*
X486749Y98985D01*
X533796D01*
X534088Y97895D01*
X535785Y94955D01*
X538185Y92555D01*
X541125Y90858D01*
X544403Y89980D01*
X544830D01*
Y102870D01*
X546100D01*
Y104140D01*
X558990D01*
Y104567D01*
X558112Y107845D01*
X556415Y110785D01*
X554015Y113185D01*
X552423Y114103D01*
Y117037D01*
X554015Y117955D01*
X556415Y120355D01*
X558112Y123295D01*
X558990Y126573D01*
Y129967D01*
X558112Y133245D01*
X556415Y136185D01*
X554359Y138240D01*
X554628Y139643D01*
X555288Y140780D01*
X558990D01*
Y166560D01*
D02*
G37*
G36*
X408940Y125703D02*
Y116840D01*
Y107977D01*
X411101Y108556D01*
X413129Y109726D01*
X413749Y110347D01*
X447727Y76370D01*
X447341Y74930D01*
X454660D01*
Y82249D01*
X453220Y81863D01*
X417441Y117643D01*
X416488Y118280D01*
X415954Y120271D01*
X414784Y122299D01*
X413129Y123954D01*
X411101Y125124D01*
X408940Y125703D01*
D02*
G37*
G36*
X359410Y80221D02*
Y72390D01*
X367241D01*
X366638Y74640D01*
X365438Y76720D01*
X363740Y78418D01*
X361660Y79619D01*
X359410Y80221D01*
D02*
G37*
G36*
X356870D02*
X354620Y79619D01*
X352540Y78418D01*
X350842Y76720D01*
X349641Y74640D01*
X349039Y72390D01*
X356870D01*
Y80221D01*
D02*
G37*
G36*
X464519Y72390D02*
X457200D01*
Y65071D01*
X459259Y65623D01*
X461226Y66758D01*
X462832Y68364D01*
X463967Y70331D01*
X464519Y72390D01*
D02*
G37*
G36*
X454660D02*
X447341D01*
X447893Y70331D01*
X449028Y68364D01*
X450634Y66758D01*
X452601Y65623D01*
X454660Y65071D01*
Y72390D01*
D02*
G37*
G36*
X367241Y69850D02*
X359410D01*
Y62019D01*
X361660Y62621D01*
X363740Y63822D01*
X365438Y65520D01*
X366638Y67600D01*
X367241Y69850D01*
D02*
G37*
G36*
X356870D02*
X349039D01*
X349641Y67600D01*
X350842Y65520D01*
X352540Y63822D01*
X354620Y62621D01*
X356870Y62019D01*
Y69850D01*
D02*
G37*
G36*
X269263Y84270D02*
X265158D01*
X261131Y83469D01*
X257339Y81898D01*
X253925Y79617D01*
X251023Y76715D01*
X248742Y73301D01*
X247171Y69509D01*
X246370Y65482D01*
Y61377D01*
X247171Y57351D01*
X248742Y53559D01*
X251023Y50145D01*
X253925Y47242D01*
X257339Y44962D01*
X261131Y43391D01*
X265158Y42590D01*
X269263D01*
X273289Y43391D01*
X277082Y44962D01*
X280495Y47242D01*
X283398Y50145D01*
X285678Y53559D01*
X287249Y57351D01*
X288050Y61377D01*
Y65482D01*
X287249Y69509D01*
X285678Y73301D01*
X283398Y76715D01*
X280495Y79617D01*
X277082Y81898D01*
X273289Y83469D01*
X269263Y84270D01*
D02*
G37*
G36*
X174263D02*
X170157D01*
X166131Y83469D01*
X162339Y81898D01*
X158925Y79617D01*
X156023Y76715D01*
X153742Y73301D01*
X152171Y69509D01*
X151370Y65482D01*
Y61377D01*
X152171Y57351D01*
X153742Y53559D01*
X156023Y50145D01*
X158925Y47242D01*
X162339Y44962D01*
X166131Y43391D01*
X170157Y42590D01*
X174263D01*
X178289Y43391D01*
X182081Y44962D01*
X185495Y47242D01*
X188397Y50145D01*
X190678Y53559D01*
X192249Y57351D01*
X193050Y61377D01*
Y65482D01*
X192249Y69509D01*
X190678Y73301D01*
X188397Y76715D01*
X185495Y79617D01*
X182081Y81898D01*
X178289Y83469D01*
X174263Y84270D01*
D02*
G37*
%LPD*%
D12*
X407670Y116840D02*
X409614Y114896D01*
X414694D01*
X455930Y73660D01*
X347024Y308204D02*
X349784D01*
X351460Y309880D01*
X285454Y246634D02*
X347024Y308204D01*
X168052Y331470D02*
X168400Y331817D01*
X173077D02*
X175270Y334010D01*
X168400Y331817D02*
X173077D01*
X59690Y190030D02*
X336410D01*
X430860Y284480D01*
X455930Y73660D02*
X485140Y102870D01*
X546100D01*
X430860Y284480D02*
X526330D01*
X565700Y245110D01*
X244710Y138430D02*
X316230D01*
X358140Y96520D01*
X376860Y309880D02*
X430860D01*
X351460Y335280D02*
X376860Y309880D01*
X134620Y258360D02*
X146346Y246634D01*
X285454D01*
X134620Y168360D02*
X164550Y138430D01*
X194710D01*
X219710D02*
X249640Y168360D01*
X297180D01*
X209550Y334010D02*
X215270D01*
X430860Y335280D02*
X437210Y341630D01*
X475700D01*
D30*
X59690Y240030D02*
D03*
X194710Y138430D02*
D03*
X219710D02*
D03*
X244710D02*
D03*
X673100Y190030D02*
D03*
D31*
X59690D02*
D03*
X673100Y240030D02*
D03*
D32*
X172210Y63430D02*
D03*
X267210D02*
D03*
D33*
X175270Y334010D02*
D03*
X215270D02*
D03*
X255270D02*
D03*
D34*
X140270Y376010D02*
D03*
X290270Y314010D02*
D03*
D35*
X546100Y153670D02*
D03*
D36*
Y128270D02*
D03*
Y102870D02*
D03*
D37*
X614680Y290280D02*
D03*
Y380280D02*
D03*
X215900Y168360D02*
D03*
X565700Y341630D02*
D03*
Y245110D02*
D03*
X297180Y168360D02*
D03*
Y258360D02*
D03*
X134620D02*
D03*
Y168360D02*
D03*
D38*
X215900Y258360D02*
D03*
D39*
X475700Y341630D02*
D03*
Y245110D02*
D03*
D40*
X430860Y284480D02*
D03*
D41*
Y309880D02*
D03*
Y335280D02*
D03*
Y360680D02*
D03*
X351460D02*
D03*
Y335280D02*
D03*
Y309880D02*
D03*
Y284480D02*
D03*
D42*
X455930Y99060D02*
D03*
Y73660D02*
D03*
D43*
X358140Y96520D02*
D03*
Y71120D02*
D03*
D44*
X407670Y116840D02*
D03*
M02*
