G04*
G04 #@! TF.GenerationSoftware,Altium Limited,Altium Designer,25.8.1 (18)*
G04*
G04 Layer_Color=65535*
%FSLAX44Y44*%
%MOMM*%
G71*
G04*
G04 #@! TF.SameCoordinates,FD4C0DAB-9491-4D72-95A4-0CDAAEB39303*
G04*
G04*
G04 #@! TF.FilePolarity,Positive*
G04*
G01*
G75*
%ADD10C,0.2000*%
%ADD11C,0.1000*%
%ADD12C,0.2540*%
%ADD13R,1.8500X0.9820*%
D10*
X262710Y137430D02*
G03*
X261710Y137430I-500J0D01*
G01*
D02*
G03*
X262710Y137430I500J0D01*
G01*
D02*
G03*
X261710Y137430I-500J0D01*
G01*
X175270Y304010D02*
G03*
X177270Y304010I1000J0D01*
G01*
D02*
G03*
X175270Y304010I-1000J0D01*
G01*
X455930Y118060D02*
G03*
X455930Y117060I0J-500D01*
G01*
D02*
G03*
X455930Y118060I0J500D01*
G01*
D02*
G03*
X455930Y117060I0J-500D01*
G01*
X18690Y165030D02*
X59690D01*
X18690D02*
Y266030D01*
X94690D01*
Y190030D02*
Y266030D01*
X295270Y331010D02*
Y378510D01*
X155270D02*
X295270D01*
X135270Y311510D02*
X270270D01*
X135270D02*
Y361010D01*
X530050Y74920D02*
X578350D01*
Y181620D01*
X546100D02*
X578350D01*
X605430Y314030D02*
Y356530D01*
Y314030D02*
X623930D01*
X605430Y356530D02*
X623930D01*
Y314030D02*
Y356530D01*
X638100Y164030D02*
Y240030D01*
Y164030D02*
X714100D01*
Y265030D01*
X673100D02*
X714100D01*
X203900Y181860D02*
Y244860D01*
X227900Y181860D02*
Y244860D01*
X222640D02*
X227900D01*
X203900Y181860D02*
X209160D01*
X203900Y244860D02*
X209160D01*
X222640Y181860D02*
X227900D01*
X489200Y329630D02*
X552200D01*
X489200Y353630D02*
X552200D01*
X489200Y348370D02*
Y353630D01*
X552200Y329630D02*
Y334890D01*
X489200Y329630D02*
Y334890D01*
X552200Y348370D02*
Y353630D01*
X358160Y271780D02*
X436510D01*
X358160Y373380D02*
X424160D01*
X489200Y233110D02*
X552200D01*
X489200Y257110D02*
X552200D01*
X489200Y251850D02*
Y257110D01*
X552200Y233110D02*
Y238370D01*
X489200Y233110D02*
Y238370D01*
X552200Y251850D02*
Y257110D01*
X287930Y192110D02*
Y234610D01*
Y192110D02*
X306430D01*
X287930Y234610D02*
X306430D01*
Y192110D02*
Y234610D01*
X143870Y192110D02*
Y234610D01*
X125370D02*
X143870D01*
X125370Y192110D02*
X143870D01*
X125370D02*
Y234610D01*
D11*
X166210Y88430D02*
Y128430D01*
Y88430D02*
Y128430D01*
X179710D01*
X166210D02*
X179710D01*
X257210D02*
X273210D01*
X257210D02*
X273210D01*
Y88430D02*
Y128430D01*
Y88430D02*
Y128430D01*
X166210Y14930D02*
Y38430D01*
Y14930D02*
Y38430D01*
Y14930D02*
X273210D01*
X166210D02*
X273210D01*
Y38430D01*
Y14930D02*
Y38430D01*
X471830Y60960D02*
Y111760D01*
X440030Y60960D02*
X471830D01*
X440030D02*
Y111760D01*
X471830D01*
X366140Y102870D02*
X370840D01*
Y64770D02*
Y102870D01*
X366140Y64770D02*
X370840D01*
X345440Y102870D02*
X350140D01*
X345440Y64770D02*
Y102870D01*
Y64770D02*
X350140D01*
D12*
X320040Y24548D02*
Y11852D01*
X326388D01*
X328504Y13968D01*
Y22432D01*
X326388Y24548D01*
X320040D01*
X339084Y11852D02*
X334852D01*
X332736Y13968D01*
Y18200D01*
X334852Y20316D01*
X339084D01*
X341200Y18200D01*
Y16084D01*
X332736D01*
X345432Y11852D02*
X351780D01*
X353896Y13968D01*
X351780Y16084D01*
X347548D01*
X345432Y18200D01*
X347548Y20316D01*
X353896D01*
X358128Y11852D02*
X362360D01*
X360244D01*
Y20316D01*
X358128D01*
X372939Y7620D02*
X375056D01*
X377172Y9736D01*
Y20316D01*
X370824D01*
X368708Y18200D01*
Y13968D01*
X370824Y11852D01*
X377172D01*
X381404D02*
Y20316D01*
X387751D01*
X389867Y18200D01*
Y11852D01*
X400447D02*
X396215D01*
X394099Y13968D01*
Y18200D01*
X396215Y20316D01*
X400447D01*
X402563Y18200D01*
Y16084D01*
X394099D01*
X415259Y24548D02*
Y11852D01*
X408911D01*
X406795Y13968D01*
Y18200D01*
X408911Y20316D01*
X415259D01*
X432187Y24548D02*
Y11852D01*
X438535D01*
X440651Y13968D01*
Y16084D01*
Y18200D01*
X438535Y20316D01*
X432187D01*
X444883D02*
Y13968D01*
X446999Y11852D01*
X453347D01*
Y9736D01*
X451231Y7620D01*
X449115D01*
X453347Y11852D02*
Y20316D01*
X478739Y24548D02*
X474507D01*
X476623D01*
Y13968D01*
X474507Y11852D01*
X472391D01*
X470275Y13968D01*
X485087Y20316D02*
X489319D01*
X491435Y18200D01*
Y11852D01*
X485087D01*
X482971Y13968D01*
X485087Y16084D01*
X491435D01*
X495666Y11852D02*
X502014D01*
X504130Y13968D01*
X502014Y16084D01*
X497782D01*
X495666Y18200D01*
X497782Y20316D01*
X504130D01*
X510478Y11852D02*
X514710D01*
X516826Y13968D01*
Y18200D01*
X514710Y20316D01*
X510478D01*
X508362Y18200D01*
Y13968D01*
X510478Y11852D01*
X521058D02*
Y20316D01*
X527406D01*
X529522Y18200D01*
Y11852D01*
X546450Y24548D02*
Y11852D01*
X550682Y16084D01*
X554914Y11852D01*
Y24548D01*
X561262Y20316D02*
X565494D01*
X567610Y18200D01*
Y11852D01*
X561262D01*
X559146Y13968D01*
X561262Y16084D01*
X567610D01*
X571842Y11852D02*
X578190D01*
X580306Y13968D01*
X578190Y16084D01*
X573958D01*
X571842Y18200D01*
X573958Y20316D01*
X580306D01*
X590886Y11852D02*
X586654D01*
X584538Y13968D01*
Y18200D01*
X586654Y20316D01*
X590886D01*
X593002Y18200D01*
Y16084D01*
X584538D01*
X605697Y7620D02*
Y20316D01*
X599350D01*
X597234Y18200D01*
Y13968D01*
X599350Y11852D01*
X605697D01*
X622625Y22432D02*
X624741Y24548D01*
X628973D01*
X631089Y22432D01*
Y20316D01*
X628973Y18200D01*
X631089Y16084D01*
Y13968D01*
X628973Y11852D01*
X624741D01*
X622625Y13968D01*
Y16084D01*
X624741Y18200D01*
X622625Y20316D01*
Y22432D01*
X624741Y18200D02*
X628973D01*
X635321Y11852D02*
X643785Y20316D01*
X656481Y11852D02*
X648017D01*
X656481Y20316D01*
Y22432D01*
X654365Y24548D01*
X650133D01*
X648017Y22432D01*
X660713D02*
X662829Y24548D01*
X667061D01*
X669177Y22432D01*
Y13968D01*
X667061Y11852D01*
X662829D01*
X660713Y13968D01*
Y22432D01*
X681873Y11852D02*
X673409D01*
X681873Y20316D01*
Y22432D01*
X679757Y24548D01*
X675525D01*
X673409Y22432D01*
X694569Y24548D02*
X686105D01*
Y18200D01*
X690337Y20316D01*
X692453D01*
X694569Y18200D01*
Y13968D01*
X692453Y11852D01*
X688221D01*
X686105Y13968D01*
X720090Y240452D02*
X728554D01*
X724322Y244684D02*
Y236220D01*
X720090Y187960D02*
X728554D01*
X5080Y189230D02*
X13544D01*
X5080Y240452D02*
X13544D01*
X9312Y244684D02*
Y236220D01*
X506730Y43180D02*
Y55876D01*
X513078D01*
X515194Y53760D01*
Y49528D01*
X513078Y47412D01*
X506730D01*
X519426Y55876D02*
Y43180D01*
X523658Y47412D01*
X527890Y43180D01*
Y55876D01*
X532122Y43180D02*
Y55876D01*
X536354Y51644D01*
X540586Y55876D01*
Y43180D01*
X565978Y53760D02*
X563862Y55876D01*
X559630D01*
X557514Y53760D01*
Y45296D01*
X559630Y43180D01*
X563862D01*
X565978Y45296D01*
X572325Y43180D02*
X576557D01*
X578673Y45296D01*
Y49528D01*
X576557Y51644D01*
X572325D01*
X570209Y49528D01*
Y45296D01*
X572325Y43180D01*
X582905D02*
Y51644D01*
X589253D01*
X591369Y49528D01*
Y43180D01*
X597717Y53760D02*
Y51644D01*
X595601D01*
X599833D01*
X597717D01*
Y45296D01*
X599833Y43180D01*
X606181Y51644D02*
Y43180D01*
Y47412D01*
X608297Y49528D01*
X610413Y51644D01*
X612529D01*
X620993Y43180D02*
X625225D01*
X627341Y45296D01*
Y49528D01*
X625225Y51644D01*
X620993D01*
X618877Y49528D01*
Y45296D01*
X620993Y43180D01*
X631573D02*
X635805D01*
X633689D01*
Y55876D01*
X631573D01*
X642153Y43180D02*
X646385D01*
X644269D01*
Y55876D01*
X642153D01*
X659081Y43180D02*
X654849D01*
X652733Y45296D01*
Y49528D01*
X654849Y51644D01*
X659081D01*
X661197Y49528D01*
Y47412D01*
X652733D01*
X665429Y51644D02*
Y43180D01*
Y47412D01*
X667545Y49528D01*
X669661Y51644D01*
X671777D01*
X18542Y291587D02*
X23620D01*
X21081D01*
Y276352D01*
X18542D01*
X23620D01*
X31238D02*
Y291587D01*
X41395Y276352D01*
Y291587D01*
X46473Y276352D02*
Y291587D01*
X54090D01*
X56630Y289048D01*
Y283969D01*
X54090Y281430D01*
X46473D01*
X61708Y291587D02*
Y278891D01*
X64247Y276352D01*
X69326D01*
X71865Y278891D01*
Y291587D01*
X76943D02*
X87100D01*
X82022D01*
Y276352D01*
X100337Y74932D02*
Y90168D01*
X107954D01*
X110493Y87628D01*
Y82550D01*
X107954Y80011D01*
X100337D01*
X123189Y90168D02*
X118111D01*
X115572Y87628D01*
Y77472D01*
X118111Y74932D01*
X123189D01*
X125728Y77472D01*
Y87628D01*
X123189Y90168D01*
X130807D02*
X140963D01*
X135885D01*
Y74932D01*
X149240Y415288D02*
X146701Y417827D01*
X141623D01*
X139084Y415288D01*
Y412749D01*
X141623Y410210D01*
X146701D01*
X149240Y407671D01*
Y405132D01*
X146701Y402593D01*
X141623D01*
X139084Y405132D01*
X154319Y417827D02*
Y402593D01*
X159397Y407671D01*
X164475Y402593D01*
Y417827D01*
X169554D02*
X174632D01*
X172093D01*
Y402593D01*
X169554D01*
X174632D01*
X182250Y417827D02*
X192406D01*
X187328D01*
Y402593D01*
X207642Y415288D02*
X205102Y417827D01*
X200024D01*
X197485Y415288D01*
Y405132D01*
X200024Y402593D01*
X205102D01*
X207642Y405132D01*
X212720Y417827D02*
Y402593D01*
Y410210D01*
X222876D01*
Y417827D01*
Y402593D01*
X470154Y265938D02*
Y281173D01*
X477771D01*
X480311Y278634D01*
Y273556D01*
X477771Y271016D01*
X470154D01*
X475232D02*
X480311Y265938D01*
X485389Y278634D02*
X487928Y281173D01*
X493007D01*
X495546Y278634D01*
Y276095D01*
X493007Y273556D01*
X490467D01*
X493007D01*
X495546Y271016D01*
Y268477D01*
X493007Y265938D01*
X487928D01*
X485389Y268477D01*
X470154Y362458D02*
Y377693D01*
X477771D01*
X480311Y375154D01*
Y370075D01*
X477771Y367536D01*
X470154D01*
X475232D02*
X480311Y362458D01*
X495546D02*
X485389D01*
X495546Y372615D01*
Y375154D01*
X493007Y377693D01*
X487928D01*
X485389Y375154D01*
X205232Y274066D02*
Y289301D01*
X212850D01*
X215389Y286762D01*
Y281684D01*
X212850Y279144D01*
X205232D01*
X210310D02*
X215389Y274066D01*
X220467D02*
X225545D01*
X223006D01*
Y289301D01*
X220467Y286762D01*
X645412Y290518D02*
X640333D01*
X637794Y287979D01*
Y277822D01*
X640333Y275283D01*
X645412D01*
X647951Y277822D01*
Y287979D01*
X645412Y290518D01*
X653029D02*
Y277822D01*
X655568Y275283D01*
X660647D01*
X663186Y277822D01*
Y290518D01*
X668264D02*
X678421D01*
X673343D01*
Y275283D01*
X683499D02*
Y290518D01*
X691117D01*
X693656Y287979D01*
Y282900D01*
X691117Y280361D01*
X683499D01*
X698734Y290518D02*
Y277822D01*
X701273Y275283D01*
X706352D01*
X708891Y277822D01*
Y290518D01*
X713969D02*
X724126D01*
X719048D01*
Y275283D01*
X529844Y192024D02*
Y207259D01*
X540001Y192024D01*
Y207259D01*
X545079Y192024D02*
Y207259D01*
X550157Y202181D01*
X555236Y207259D01*
Y192024D01*
X567932Y207259D02*
X562853D01*
X560314Y204720D01*
Y194563D01*
X562853Y192024D01*
X567932D01*
X570471Y194563D01*
Y204720D01*
X567932Y207259D01*
X585706Y204720D02*
X583167Y207259D01*
X578088D01*
X575549Y204720D01*
Y202181D01*
X578088Y199641D01*
X583167D01*
X585706Y197102D01*
Y194563D01*
X583167Y192024D01*
X578088D01*
X575549Y194563D01*
X600941Y207259D02*
X590784D01*
Y199641D01*
X595863D01*
X590784D01*
Y192024D01*
X616176Y207259D02*
X606019D01*
Y192024D01*
X616176D01*
X606019Y199641D02*
X611098D01*
X621254Y207259D02*
X631411D01*
X626333D01*
Y192024D01*
X343916Y399029D02*
X348994D01*
X346455D01*
Y383794D01*
X343916D01*
X348994D01*
X366769Y396490D02*
X364229Y399029D01*
X359151D01*
X356612Y396490D01*
Y386333D01*
X359151Y383794D01*
X364229D01*
X366769Y386333D01*
X606806Y411221D02*
Y395986D01*
X614423D01*
X616963Y398525D01*
Y408682D01*
X614423Y411221D01*
X606806D01*
X622041Y408682D02*
X624580Y411221D01*
X629659D01*
X632198Y408682D01*
Y406143D01*
X629659Y403604D01*
X627119D01*
X629659D01*
X632198Y401064D01*
Y398525D01*
X629659Y395986D01*
X624580D01*
X622041Y398525D01*
X289306Y289301D02*
Y274066D01*
X296924D01*
X299463Y276605D01*
Y286762D01*
X296924Y289301D01*
X289306D01*
X314698Y274066D02*
X304541D01*
X314698Y284223D01*
Y286762D01*
X312159Y289301D01*
X307080D01*
X304541Y286762D01*
X126746Y289301D02*
Y274066D01*
X134363D01*
X136903Y276605D01*
Y286762D01*
X134363Y289301D01*
X126746D01*
X141981Y274066D02*
X147059D01*
X144520D01*
Y289301D01*
X141981Y286762D01*
X442211Y148840D02*
X439672Y151379D01*
X434593D01*
X432054Y148840D01*
Y138683D01*
X434593Y136144D01*
X439672D01*
X442211Y138683D01*
X457446Y136144D02*
X447289D01*
X457446Y146301D01*
Y148840D01*
X454907Y151379D01*
X449828D01*
X447289Y148840D01*
X347723Y133854D02*
X345183Y136393D01*
X340105D01*
X337566Y133854D01*
Y123697D01*
X340105Y121158D01*
X345183D01*
X347723Y123697D01*
X352801Y121158D02*
X357879D01*
X355340D01*
Y136393D01*
X352801Y133854D01*
D13*
X614680Y351620D02*
D03*
X297180Y229700D02*
D03*
X134620Y197020D02*
D03*
M02*
