G04*
G04 #@! TF.GenerationSoftware,Altium Limited,Altium Designer,25.8.1 (18)*
G04*
G04 Layer_Physical_Order=1*
G04 Layer_Color=255*
%FSLAX44Y44*%
%MOMM*%
G71*
G04*
G04 #@! TF.SameCoordinates,FD4C0DAB-9491-4D72-95A4-0CDAAEB39303*
G04*
G04*
G04 #@! TF.FilePolarity,Positive*
G04*
G01*
G75*
%ADD12C,0.2540*%
%ADD29C,1.0000*%
%ADD30C,1.8000*%
%ADD31R,1.8000X1.8000*%
%ADD32C,3.6600*%
%ADD33C,1.4000*%
%ADD34C,2.1000*%
%ADD35R,2.0700X2.0700*%
%ADD36C,2.0700*%
%ADD37C,1.3500*%
%ADD38R,1.3500X1.3500*%
%ADD39R,1.3500X1.3500*%
%ADD40R,1.1300X1.1300*%
%ADD41C,1.1300*%
%ADD42C,1.2170*%
%ADD43C,1.3160*%
%ADD44C,1.2700*%
D12*
X367119Y360680D02*
X405219Y322580D01*
X351460Y360680D02*
X367119D01*
X405219Y322580D02*
X431800D01*
X455930Y298450D01*
X565700Y341630D02*
X582930Y324400D01*
X546100Y153670D02*
X582930Y190500D01*
Y324400D01*
X407670Y116840D02*
X430860Y140030D01*
Y284480D01*
X405765Y116840D02*
X407670D01*
X358140Y71120D02*
X360045D01*
X405765Y116840D01*
X209550Y334010D02*
X215900Y327660D01*
Y258360D02*
Y327660D01*
X358140Y96520D02*
Y237160D01*
X430860Y309880D01*
X455930Y99060D02*
Y298450D01*
X134620Y249640D02*
X215900Y168360D01*
X134620Y249640D02*
Y258360D01*
X430860Y335280D02*
X475700Y290440D01*
Y245110D02*
Y290440D01*
D29*
X90170Y334010D02*
X175270D01*
X59690Y240030D02*
Y303530D01*
X90170Y334010D01*
X396240Y379730D02*
X415290Y360680D01*
X326390Y354264D02*
X351856Y379730D01*
X415290Y360680D02*
X430860D01*
X351856Y379730D02*
X396240D01*
X326390Y309902D02*
Y354264D01*
Y309902D02*
X351812Y284480D01*
X546100Y128270D02*
X611340D01*
X673100Y190030D01*
X430860Y360680D02*
X450460Y380280D01*
X614680D01*
X215270Y334010D02*
X264800Y284480D01*
X351460D01*
X614680Y248450D02*
X673100Y190030D01*
X614680Y248450D02*
Y290280D01*
Y380280D02*
X673100Y321860D01*
Y240030D02*
Y321860D01*
D30*
X59690Y240030D02*
D03*
X194710Y138430D02*
D03*
X219710D02*
D03*
X244710D02*
D03*
X673100Y190030D02*
D03*
D31*
X59690D02*
D03*
X673100Y240030D02*
D03*
D32*
X172210Y63430D02*
D03*
X267210D02*
D03*
D33*
X175270Y334010D02*
D03*
X215270D02*
D03*
X255270D02*
D03*
D34*
X140270Y376010D02*
D03*
X290270Y314010D02*
D03*
D35*
X546100Y153670D02*
D03*
D36*
Y128270D02*
D03*
Y102870D02*
D03*
D37*
X614680Y290280D02*
D03*
Y380280D02*
D03*
X215900Y168360D02*
D03*
X565700Y341630D02*
D03*
Y245110D02*
D03*
X297180Y168360D02*
D03*
Y258360D02*
D03*
X134620D02*
D03*
Y168360D02*
D03*
D38*
X215900Y258360D02*
D03*
D39*
X475700Y341630D02*
D03*
Y245110D02*
D03*
D40*
X430860Y284480D02*
D03*
D41*
Y309880D02*
D03*
Y335280D02*
D03*
Y360680D02*
D03*
X351460D02*
D03*
Y335280D02*
D03*
Y309880D02*
D03*
Y284480D02*
D03*
D42*
X455930Y99060D02*
D03*
Y73660D02*
D03*
D43*
X358140Y96520D02*
D03*
Y71120D02*
D03*
D44*
X407670Y116840D02*
D03*
M02*
