M48
;Layer_Color=9474304
;FILE_FORMAT=4:4
METRIC,LZ
;TYPE=PLATED
T01F00S00C0.7100
T02F00S00C0.7112
T03F00S00C0.7300
T04F00S00C0.8100
T05F00S00C0.8500
T06F00S00C0.9000
T07F00S00C1.2000
T08F00S00C1.3800
T09F00S00C1.4000
T10F00S00C2.4400
%
T01
X0045593Y0007366
Y0009906
T02
X0040767Y0011684
T03
X0035146Y0028448
Y0030988
Y0033528
Y0036068
X0043086
Y0033528
Y0030988
Y0028448
T04
X0035814Y0007112
Y0009652
T05
X0013462Y0016836
X002159
X0029718
Y0025836
X002159
X0013462
X004757Y0024511
X005657
X0061468Y0029028
Y0038028
X005657Y0034163
X004757
T06
X0017527Y0033401
X0021527
X0025527
T07
X006731Y0019003
X0024471Y0013843
X0021971
X0019471
X0005969Y0019003
Y0024003
X006731
T08
X005461Y0010287
Y0012827
Y0015367
T09
X0014027Y0037601
X0029027Y0031401
T10
X0017221Y0006343
X0026721
M30
